<svg xmlns="http://www.w3.org/2000/svg" viewBox="0 0 38.13 38.13"><defs><style>.cls-1{fill:#fff;}.cls-2{fill:none;}</style></defs><g id="Layer_2" data-name="Layer 2"><g id="Layer_1-2" data-name="Layer 1"><path class="cls-1" d="M32.39,5.54V22a3,3,0,0,0-.78.69V5.54Z"/><path class="cls-1" d="M37.48,17.5a3,3,0,0,0-3.13-2.35,2.28,2.28,0,0,0-2,1.27.88.88,0,0,0,0,.1l-.73,6.17a3,3,0,0,1,.78-.69,8.24,8.24,0,0,1,1.81-.89C36.33,20.39,37.6,18.81,37.48,17.5ZM34.32,20a9.85,9.85,0,0,1-1.93,1.47v-4a1.91,1.91,0,0,1,1.31-1.57,1.78,1.78,0,0,1,2,1.31C35.83,17.7,35.76,18.58,34.32,20Z"/><path class="cls-1" d="M23.73,29.16H10.32l-3,8.37H3l12.22-32h3.69l12.24,32H26.78ZM11.6,25.71H22.47L17,10.75Z"/><rect class="cls-2" width="38.13" height="38.13"/></g></g></svg>