<svg xmlns="http://www.w3.org/2000/svg" viewBox="0 0 38.13 38.13"><defs><style>.cls-1,.cls-2{fill:#fff;}.cls-1{stroke:#fff;stroke-miterlimit:10;stroke-width:0.5px;}.cls-3{fill:none;}</style></defs><g id="Layer_2" data-name="Layer 2"><g id="Layer_1-2" data-name="Layer 1"><path class="cls-1" d="M31.23,3.07V19.53a3,3,0,0,0-.78.69V3.07Z"/><path class="cls-1" d="M36.32,15a3,3,0,0,0-3.13-2.34,2.28,2.28,0,0,0-2,1.26.8.8,0,0,0-.05.11l-.73,6.17a3,3,0,0,1,.78-.69A7.82,7.82,0,0,1,33,18.64C35.17,17.92,36.44,16.34,36.32,15Zm-3.16,2.52A9.85,9.85,0,0,1,31.23,19V15a1.91,1.91,0,0,1,1.31-1.56,1.78,1.78,0,0,1,2,1.31C34.67,15.23,34.6,16.11,33.16,17.54Z"/><path class="cls-2" d="M22.57,26.69H9.16l-3,8.37H1.8L14,3.07h3.69L30,35.06H25.62ZM10.44,23.24H21.31l-5.44-15Z"/><rect class="cls-3" width="38.13" height="38.13"/></g></g></svg>