<svg xmlns="http://www.w3.org/2000/svg" viewBox="0 0 512 512"><defs><style>.cls-1,.cls-2,.cls-3,.cls-4,.cls-5,.cls-6,.cls-7,.cls-8{fill:none;}.cls-2,.cls-6{stroke:#13707f;}.cls-2,.cls-3,.cls-4,.cls-5,.cls-6,.cls-7{stroke-miterlimit:10;}.cls-2,.cls-3,.cls-4{stroke-width:28.12px;}.cls-3,.cls-5{stroke:#ea5e5e;}.cls-4,.cls-7{stroke:#36b268;}.cls-5,.cls-6,.cls-7{stroke-width:36.85px;}.cls-8,.cls-9{font-size:11.25px;}.cls-17,.cls-8,.cls-9{font-family:Roboto-Light, Roboto;font-weight:300;}.cls-17,.cls-9{fill:#fff;}.cls-10{letter-spacing:0.01em;}.cls-11{letter-spacing:-0.01em;}.cls-12{letter-spacing:0em;}.cls-13{letter-spacing:-0.01em;}.cls-14{letter-spacing:0em;}.cls-15{letter-spacing:-0.01em;}.cls-16{letter-spacing:-0.06em;}.cls-17{font-size:13.12px;}</style></defs><g id="Layer_2" data-name="Layer 2"><g id="Layer_1-2" data-name="Layer 1"><rect class="cls-1" width="512" height="512"/><line class="cls-2" x1="443.41" y1="261.17" x2="510.89" y2="261.17"/><line class="cls-3" x1="238.31" y1="48.36" x2="385.95" y2="48.36"/><line class="cls-4" x1="287.23" y1="453.26" x2="434.86" y2="453.26"/><circle class="cls-1" cx="224.05" cy="256" r="222.94"/><path class="cls-5" d="M80.22,110.59a204.76,204.76,0,0,1,289.61,0"/><path class="cls-6" d="M369.83,110.59a204.76,204.76,0,0,1,0,289.61"/><path class="cls-7" d="M369.83,400.2A204.43,204.43,0,0,1,278,453.26"/><text class="cls-8" transform="translate(208.95 259.29)">Ionian</text><text class="cls-9" transform="translate(342.96 430.45) rotate(150)">Locrian</text><text class="cls-9" transform="translate(412.59 344.18) rotate(120)">Ph<tspan class="cls-10" x="13.1" y="0">r</tspan><tspan class="cls-11" x="16.98" y="0">y</tspan><tspan class="cls-12" x="22.26" y="0">gian</tspan></text><text class="cls-9" transform="translate(432.35 241.21) rotate(90)">Aeolian</text><text class="cls-9" transform="translate(398.67 139.89) rotate(60)">Dorian</text><text class="cls-9" transform="translate(306.7 63.45) rotate(30)">Mi<tspan class="cls-13" x="12.25" y="0">x</tspan><tspan class="cls-14" x="17.62" y="0">ol</tspan><tspan class="cls-15" x="26.44" y="0">y</tspan><tspan x="31.71" y="0">dian</tspan></text><text class="cls-9" transform="translate(104.97 84.48) rotate(-30)"><tspan class="cls-16">L</tspan><tspan class="cls-11" x="5.2" y="0">y</tspan><tspan x="10.47" y="0">dian</tspan></text><text class="cls-9" transform="translate(208.95 48.36)">Ionian</text><text class="cls-17" transform="translate(335.33 54.06)">Major</text><text class="cls-17" transform="translate(459.49 265.43)">Minor</text><text class="cls-17" transform="translate(350.72 459.27)">Diminished</text></g></g></svg>