<svg xmlns="http://www.w3.org/2000/svg" viewBox="0 0 38.13 38.13"><defs><style>.cls-1{fill:#fff;}.cls-2{fill:none;}</style></defs><g id="Layer_2" data-name="Layer 2"><g id="Layer_1-2" data-name="Layer 1"><path class="cls-1" d="M8.18,35.06v-32H18.64q5.2,0,7.83,2.15a7.76,7.76,0,0,1,2.62,6.37,6.49,6.49,0,0,1-1.27,4,8.29,8.29,0,0,1-3.47,2.67A7.4,7.4,0,0,1,28.45,21,7.92,7.92,0,0,1,30,25.83a8.56,8.56,0,0,1-2.79,6.77q-2.79,2.46-7.89,2.46ZM12.4,16.71h6.37a6.68,6.68,0,0,0,4.42-1.38,4.65,4.65,0,0,0,1.66-3.77,4.58,4.58,0,0,0-1.53-3.84,7.57,7.57,0,0,0-4.68-1.2H12.4Zm0,3.39V31.61h7A6.72,6.72,0,0,0,24,30.08a5.36,5.36,0,0,0,1.7-4.2q0-5.79-6.28-5.78Z"/><rect class="cls-2" width="38.13" height="38.13"/></g></g></svg>