<svg xmlns="http://www.w3.org/2000/svg" viewBox="0 0 38.13 38.13"><defs><style>.cls-1,.cls-2{fill:#fff;}.cls-1{stroke:#fff;stroke-miterlimit:10;stroke-width:0.5px;}.cls-3{fill:none;}</style></defs><g id="Layer_2" data-name="Layer 2"><g id="Layer_1-2" data-name="Layer 1"><path class="cls-1" d="M29.34,3.07V19.53a3.22,3.22,0,0,0-.78.69V3.07Z"/><path class="cls-1" d="M34.43,15a3,3,0,0,0-3.13-2.34,2.29,2.29,0,0,0-2,1.27l0,.1-.74,6.17a3.22,3.22,0,0,1,.78-.69,7.7,7.7,0,0,1,1.82-.89C33.29,17.92,34.55,16.34,34.43,15Zm-3.15,2.52A9.73,9.73,0,0,1,29.34,19V15a1.9,1.9,0,0,1,1.32-1.56,1.8,1.8,0,0,1,2,1.31C32.78,15.23,32.72,16.11,31.28,17.54Z"/><path class="cls-2" d="M3.69,35.06v-32H14.15q5.21,0,7.83,2.15a7.76,7.76,0,0,1,2.62,6.37,6.49,6.49,0,0,1-1.27,4,8.29,8.29,0,0,1-3.47,2.67A7.4,7.4,0,0,1,24,21a7.92,7.92,0,0,1,1.5,4.84,8.56,8.56,0,0,1-2.79,6.77q-2.79,2.46-7.89,2.46ZM7.91,16.71h6.37a6.68,6.68,0,0,0,4.42-1.38,4.65,4.65,0,0,0,1.66-3.77,4.58,4.58,0,0,0-1.53-3.84,7.57,7.57,0,0,0-4.68-1.2H7.91Zm0,3.39V31.61h7a6.72,6.72,0,0,0,4.65-1.53,5.36,5.36,0,0,0,1.7-4.2q0-5.79-6.28-5.78Z"/><rect class="cls-3" width="38.13" height="38.13"/></g></g></svg>