<svg xmlns="http://www.w3.org/2000/svg" viewBox="0 0 450.58 450.53"><defs><style>.cls-1,.cls-2,.cls-3,.cls-4,.cls-5,.cls-6,.cls-7{fill:none;}.cls-2,.cls-3{stroke:#13707f;}.cls-2,.cls-3,.cls-4,.cls-5,.cls-6,.cls-7{stroke-miterlimit:10;}.cls-2,.cls-6,.cls-7{stroke-width:25.88px;}.cls-3,.cls-4,.cls-5{stroke-width:31.95px;}.cls-4,.cls-7{stroke:#36b268;}.cls-5,.cls-6{stroke:#ea5e5e;}.cls-8{isolation:isolate;font-size:12.21px;font-family:Roboto-Light, Roboto;font-weight:300;}.cls-8,.cls-9{fill:#fff;}</style></defs><g id="Layer_2" data-name="Layer 2"><g id="Layer_1-2" data-name="Layer 1"><rect class="cls-1" width="450.53" height="450.53"/><line class="cls-2" x1="377.92" y1="216.9" x2="450.53" y2="216.65"/><path class="cls-3" d="M330.94,113.14a146.21,146.21,0,0,1,38.86,69.43,153,153,0,0,1-2.08,78.72,156.92,156.92,0,0,1-39.83,66.93h0"/><path class="cls-4" d="M327.88,328.22A156.82,156.82,0,0,1,261,368.05"/><path class="cls-5" d="M115.86,116.2a156.85,156.85,0,0,1,66.93-39.84,153.09,153.09,0,0,1,78.72-2.08,146.12,146.12,0,0,1,69.43,38.86"/><line class="cls-6" x1="264.15" y1="72.63" x2="366.07" y2="72.63"/><line class="cls-7" x1="285.76" y1="358.73" x2="403.66" y2="358.73"/><text class="cls-8" transform="translate(330.37 363.28)">Diminished</text><text class="cls-8" transform="translate(323.74 77.79)">Major</text><text class="cls-8" transform="translate(403.52 221.47)">Minor</text><path class="cls-9" d="M286.38,74.8c.13,2,.18,3,.24,5,1.42-1.42,2.14-2.12,3.61-3.49l.58.24c-.81,1.91-1.22,2.88-2,4.79l-.42-.18.88-2.09c.38-.84.56-1.27.94-2.12-1.48,1.37-2.2,2.06-3.62,3.48l-.32-.13c-.06-2-.12-3-.26-5-.3.86-.45,1.29-.76,2.16s-.48,1.28-.79,2.14l-.42-.16c.72-2,1.07-2.93,1.78-4.89Z"/><path class="cls-9" d="M291.91,77.29a.22.22,0,0,1,.16-.15.26.26,0,0,1,.24,0,.3.3,0,0,1,.18.17.28.28,0,0,1,0,.22.33.33,0,0,1-.16.15.37.37,0,0,1-.25,0,.31.31,0,0,1-.17-.17A.22.22,0,0,1,291.91,77.29Zm-1.55,4.77-.4-.18c.63-1.42.94-2.13,1.57-3.54l.42.18Z"/><path class="cls-9" d="M293.56,81l1.67-.93.49.24c-.84.43-1.25.65-2.08,1.1.17,1,.25,1.43.4,2.39l-.46-.23c-.11-.78-.17-1.18-.3-2-.69.4-1,.6-1.72,1l-.47-.22c.83-.48,1.26-.72,2.11-1.19-.17-.92-.26-1.38-.45-2.31l.48.23C293.37,79.87,293.44,80.25,293.56,81Z"/><path class="cls-9" d="M295.33,82.22a2.36,2.36,0,0,1,.65-.8,1.72,1.72,0,0,1,.89-.32,1.76,1.76,0,0,1,1,.22,1.68,1.68,0,0,1,.91,1.1,2,2,0,0,1-.25,1.5s0,0,0,.08a2.32,2.32,0,0,1-.68.77,1.65,1.65,0,0,1-.88.31,1.83,1.83,0,0,1-.93-.21,1.69,1.69,0,0,1-.88-1.07,2.06,2.06,0,0,1,.21-1.51Zm.35.31a1.69,1.69,0,0,0-.19,1.18,1.21,1.21,0,0,0,.64.84,1.24,1.24,0,0,0,1.06.06,1.8,1.8,0,0,0,.89-.86.25.25,0,0,0,0-.07,2,2,0,0,0,.24-.8,1.38,1.38,0,0,0-.16-.73,1.29,1.29,0,0,0-.54-.52,1.24,1.24,0,0,0-1.08-.06,1.81,1.81,0,0,0-.87.88Z"/><path class="cls-9" d="M298.76,86.32l-.38-.21,2.7-4.79.4.23C300.39,83.45,299.85,84.41,298.76,86.32Z"/><path class="cls-9" d="M301.18,87c1.07-.87,1.61-1.3,2.7-2.16l.42.26c-1.55,1.16-2.32,1.76-3.83,3l-.18.13a1,1,0,0,1-1.21.1,1.55,1.55,0,0,1-.25-.21c.06-.12.1-.19.17-.31l.18.13a.81.81,0,0,0,.52.13,1.28,1.28,0,0,0,.57-.29l.43-.35c.28-1.62.41-2.43.64-4.07l.43.25C301.55,85,301.43,85.65,301.18,87Z"/><path class="cls-9" d="M303.68,87a2.26,2.26,0,0,1,1.13-1,1.36,1.36,0,0,1,1.26.18,1.43,1.43,0,0,1,.71,1.21c.49-.72.73-1.07,1.21-1.8l.39.26-3.09,4.55-.33-.23c.1-.18.16-.27.27-.44a1.45,1.45,0,0,1-1.35-.2,1.36,1.36,0,0,1-.64-1,2.37,2.37,0,0,1,.42-1.45Zm.34.31a2,2,0,0,0-.37,1.14,1,1,0,0,0,.49.83,1.19,1.19,0,0,0,1.35.06c.4-.61.6-.9,1-1.51a1.19,1.19,0,0,0-.56-1.28,1.05,1.05,0,0,0-1-.13A2.16,2.16,0,0,0,304,87.28Z"/><path class="cls-9" d="M309.06,86.92a.26.26,0,0,1,.19-.12.31.31,0,0,1,.24.06.3.3,0,0,1,.14.2.28.28,0,0,1-.23.33.36.36,0,0,1-.24-.06.32.32,0,0,1-.14-.2A.27.27,0,0,1,309.06,86.92Zm-2.42,4.39-.36-.25,2.21-3.17c.15.1.23.15.37.26Z"/><path class="cls-9" d="M309.61,93.49a2.13,2.13,0,0,1,.26-.48,1.54,1.54,0,0,1-.74,0,1.66,1.66,0,0,1-.7-.32,1.33,1.33,0,0,1-.56-.79,1,1,0,0,1,.17-.85,1,1,0,0,1,.92-.44,2.43,2.43,0,0,1,1.29.55c.26.19.4.29.65.49.11-.14.17-.21.27-.35a.85.85,0,0,0,.18-.69,1.14,1.14,0,0,0-.49-.66,1.2,1.2,0,0,0-.77-.28.65.65,0,0,0-.57.26c-.15-.1-.22-.16-.36-.27a1,1,0,0,1,.83-.38,1.83,1.83,0,0,1,1.1.39,1.68,1.68,0,0,1,.68.91,1.11,1.11,0,0,1-.23,1c-.44.59-.67.88-1.11,1.46a2,2,0,0,0-.41.74l0,0Zm-.91-1.08a1.49,1.49,0,0,0,.75.31,1.24,1.24,0,0,0,.74-.14l.51-.68-.63-.48a2.1,2.1,0,0,0-1-.43.71.71,0,0,0-.78.87A.87.87,0,0,0,308.7,92.41Z"/><path class="cls-9" d="M313.54,91.64l-.4.52a1.53,1.53,0,0,1,.79-.06,1.41,1.41,0,0,1,.71.33,1.22,1.22,0,0,1,.54.9,1.53,1.53,0,0,1-.42,1l-1.63,2-.34-.28,1.62-2a1.1,1.1,0,0,0,.31-.74.92.92,0,0,0-.4-.66,1.2,1.2,0,0,0-.74-.27,1.37,1.37,0,0,0-.79.23l-1.65,2.07-.34-.26,2.39-3Z"/><path class="cls-9" d="M134.82,92.75c.8-.71,1.21-1.06,2-1.74l.23.29c-1,.79-1.44,1.2-2.36,2l-3.51-3.86.38-.33Z"/><path class="cls-9" d="M137.93,89.85c-.42-1.32-.62-2-1-3.32l.41-.31c.48,1.9.74,2.83,1.32,4.68a2.09,2.09,0,0,0,.05.21,1.08,1.08,0,0,1-.34,1.17,1.58,1.58,0,0,1-.29.17c-.09-.11-.14-.16-.23-.28a1.22,1.22,0,0,0,.19-.12.82.82,0,0,0,.31-.45,1.24,1.24,0,0,0-.07-.63l-.17-.53c-1.42-.84-2.14-1.24-3.61-2l.4-.33C136.13,88.78,136.74,89.13,137.93,89.85Z"/><path class="cls-9" d="M138.84,87.48a2.19,2.19,0,0,1-.48-1.42,1.47,1.47,0,0,1,.69-1.12,1.5,1.5,0,0,1,1.43-.21l-1.18-1.82.41-.26c1.18,1.85,1.76,2.78,2.94,4.64l-.35.22c-.11-.17-.17-.25-.29-.42a1.47,1.47,0,0,1-.72,1.17,1.35,1.35,0,0,1-1.23.19,2.29,2.29,0,0,1-1.19-.93Zm.42-.2a1.94,1.94,0,0,0,.93.77,1,1,0,0,0,1-.14,1.25,1.25,0,0,0,.6-1.22l-1-1.53a1.23,1.23,0,0,0-1.43,0,1.08,1.08,0,0,0-.52.87A2,2,0,0,0,139.26,87.28Z"/><path class="cls-9" d="M141,82.43a.28.28,0,0,1,0-.22.36.36,0,0,1,.17-.2.39.39,0,0,1,.25-.05.25.25,0,0,1,.18.13.28.28,0,0,1,0,.22.4.4,0,0,1-.17.2.34.34,0,0,1-.25,0A.29.29,0,0,1,141,82.43Zm3,4-.38.23-2-3.31.41-.24Z"/><path class="cls-9" d="M147.32,84.63a2.21,2.21,0,0,1-.32-.45,1.64,1.64,0,0,1-.32.68,1.8,1.8,0,0,1-.6.49,1.39,1.39,0,0,1-1,.18,1,1,0,0,1-.7-1.53,2.38,2.38,0,0,1,1.07-1l.74-.39-.2-.39a.84.84,0,0,0-.55-.45,1.21,1.21,0,0,0-.83.17,1.32,1.32,0,0,0-.6.59.62.62,0,0,0,0,.63l-.41.23a1,1,0,0,1,0-.93,1.86,1.86,0,0,1,.85-.86,1.74,1.74,0,0,1,1.15-.23,1.11,1.11,0,0,1,.78.61c.33.66.49,1,.82,1.64a2.1,2.1,0,0,0,.49.7s0,0,0,0ZM146,85a1.52,1.52,0,0,0,.6-.55,1.23,1.23,0,0,0,.2-.73l-.38-.76-.72.38a2.15,2.15,0,0,0-.83.71.7.7,0,0,0,.46,1.08A1,1,0,0,0,146,85Z"/><path class="cls-9" d="M147.43,80.27l.3.59a1.48,1.48,0,0,1,.31-.75,1.64,1.64,0,0,1,.65-.5,1.35,1.35,0,0,1,1.08-.08,1.45,1.45,0,0,1,.71.84c.39.94.58,1.41,1,2.34l-.4.17c-.4-.93-.6-1.4-1-2.34a1.15,1.15,0,0,0-.53-.62,1,1,0,0,0-.79.07,1.22,1.22,0,0,0-.6.54,1.43,1.43,0,0,0-.17.82l1.12,2.4-.39.19c-.67-1.4-1-2.1-1.67-3.49Z"/><path class="cls-9" d="M353.77,136.17c1.63-1.29,2.45-1.94,4.07-3.24.4.51.6.75,1,1.27a2.49,2.49,0,0,1,.52,1.18,2,2,0,0,1-.18,1.19,2.47,2.47,0,0,1-.84,1l-.4.27a2.69,2.69,0,0,1-1.18.47,2,2,0,0,1-1.15-.18,2.39,2.39,0,0,1-.94-.78C354.3,136.85,354.13,136.62,353.77,136.17Zm4.08-2.63-3.51,2.75c.25.32.37.47.61.8a1.79,1.79,0,0,0,1.24.75,2.07,2.07,0,0,0,1.5-.44l.37-.26a2,2,0,0,0,.87-1.26,1.81,1.81,0,0,0-.39-1.45C358.26,134.07,358.13,133.89,357.85,133.54Z"/><path class="cls-9" d="M358.08,138.68a2.11,2.11,0,0,1,1-.37,1.69,1.69,0,0,1,.94.15,1.8,1.8,0,0,1,.72.68,1.71,1.71,0,0,1,.25,1.42,2,2,0,0,1-1,1.17l-.08,0a2.33,2.33,0,0,1-1,.33,1.65,1.65,0,0,1-.91-.17,1.81,1.81,0,0,1-.68-.64,1.63,1.63,0,0,1-.23-1.36,2.11,2.11,0,0,1,.91-1.21A.2.2,0,0,0,358.08,138.68Zm.15.43a1.73,1.73,0,0,0-.75.94,1.22,1.22,0,0,0,.14,1,1.2,1.2,0,0,0,.88.57,1.79,1.79,0,0,0,1.2-.29l.07,0a1.9,1.9,0,0,0,.6-.56,1.26,1.26,0,0,0,0-1.44,1.25,1.25,0,0,0-.92-.59,1.78,1.78,0,0,0-1.19.33Z"/><path class="cls-9" d="M362.69,143.43a1.69,1.69,0,0,0-.12-.28,1.2,1.2,0,0,0-.54-.53,1.18,1.18,0,0,0-.77-.05l-2.32,1.3-.21-.37,3.36-1.92.22.39-.54.31a1.21,1.21,0,0,1,1.17.69,1.11,1.11,0,0,1,.1.29Z"/><path class="cls-9" d="M364.33,143.37a.25.25,0,0,1,.22,0,.3.3,0,0,1,.18.17.33.33,0,0,1,0,.25.35.35,0,0,1-.15.17.28.28,0,0,1-.22,0,.36.36,0,0,1-.18-.17.35.35,0,0,1,0-.24A.24.24,0,0,1,364.33,143.37Zm-4.2,2.73-.2-.39,3.44-1.76c.09.16.13.24.21.41Z"/><path class="cls-9" d="M361.66,149.39a1.59,1.59,0,0,1,.46-.29,1.61,1.61,0,0,1-.64-.35,1.67,1.67,0,0,1-.45-.61,1.38,1.38,0,0,1-.11-1,1.05,1.05,0,0,1,.56-.66,1,1,0,0,1,1,.06,2.33,2.33,0,0,1,.86,1.1c.14.3.2.45.33.74l.41-.17a.82.82,0,0,0,.49-.51,1.18,1.18,0,0,0-.1-.82,1.24,1.24,0,0,0-.54-.62.65.65,0,0,0-.63-.05c-.08-.17-.11-.25-.19-.41a1,1,0,0,1,.92.06,1.91,1.91,0,0,1,.78.89,1.66,1.66,0,0,1,.14,1.13,1.12,1.12,0,0,1-.67.73l-1.69.71a2.21,2.21,0,0,0-.73.43l0,0Zm-.27-1.37a1.52,1.52,0,0,0,.51.63,1.31,1.31,0,0,0,.71.24l.78-.34-.32-.73a2,2,0,0,0-.64-.85.72.72,0,0,0-.73-.07.69.69,0,0,0-.38.45A.94.94,0,0,0,361.39,148Z"/><path class="cls-9" d="M366,149.75l-.61.25a1.62,1.62,0,0,1,.72.35,1.45,1.45,0,0,1,.44.66,1.27,1.27,0,0,1,0,1.05,1.5,1.5,0,0,1-.89.65l-2.4.82c-.05-.17-.08-.25-.14-.41l2.4-.83a1.16,1.16,0,0,0,.66-.48,1,1,0,0,0,0-.78,1.21,1.21,0,0,0-.5-.61,1.3,1.3,0,0,0-.79-.21l-2.47,1c-.07-.16-.09-.24-.16-.4l3.6-1.43Z"/><path class="cls-9" d="M379.64,212.24c-.1-1-.17-1.46-.32-2.43-.61-.12-.92-.19-1.54-.3,0-.19,0-.28-.08-.46,2.19.42,3.29.67,5.47,1.25,0,.18,0,.27.06.45-2,1.13-2.94,1.66-4.94,2.64,0-.18,0-.27,0-.46C378.81,212.67,379.09,212.52,379.64,212.24Zm.07-2.34c.13.86.19,1.29.28,2.15,1.08-.56,1.62-.85,2.68-1.45C381.49,210.29,380.89,210.16,379.71,209.9Z"/><path class="cls-9" d="M378.38,215.57a1.76,1.76,0,0,1,.19-.91,1.69,1.69,0,0,1,.62-.68,2.06,2.06,0,0,1,1-.31h.15a2,2,0,0,1,1,.14,1.79,1.79,0,0,1,.75.58,1.68,1.68,0,0,1,.31.89,1.55,1.55,0,0,1-.42,1.22,1.86,1.86,0,0,1-1.3.48h-.24c0-1.15-.06-1.72-.15-2.86h-.09a1.63,1.63,0,0,0-1.06.47,1.27,1.27,0,0,0-.38,1,1.61,1.61,0,0,0,.16.61,1.3,1.3,0,0,0,.42.46l-.2.28A1.64,1.64,0,0,1,378.38,215.57Zm3.64-.28a1.18,1.18,0,0,0-.41-.85,1.61,1.61,0,0,0-1-.35c.08,1,.1,1.46.14,2.43h0a1.4,1.4,0,0,0,.9-.37A1.07,1.07,0,0,0,382,215.29Z"/><path class="cls-9" d="M378.54,218.34c0-.17,0-.25,0-.43l5.5-.06v.47Z"/><path class="cls-9" d="M383.52,219.57a.25.25,0,0,1,.2.09.27.27,0,0,1,.08.24.29.29,0,0,1-.09.23.24.24,0,0,1-.2.08.25.25,0,0,1-.2-.09.36.36,0,0,1-.08-.24.3.3,0,0,1,.09-.23A.22.22,0,0,1,383.52,219.57Zm-5,.42c0-.17,0-.25,0-.43l3.87.07c0,.18,0,.28,0,.46Z"/><path class="cls-9" d="M380.48,221a2.07,2.07,0,0,1,1,.27,1.57,1.57,0,0,1,.66.69,1.92,1.92,0,0,1-.47,2.27,2,2,0,0,1-1.48.36h-.09a2.24,2.24,0,0,1-1-.33,1.65,1.65,0,0,1-.63-.68,1.71,1.71,0,0,1-.17-.93,1.66,1.66,0,0,1,.62-1.22,2.09,2.09,0,0,1,1.45-.43Zm-.14.44a1.72,1.72,0,0,0-1.16.31,1.21,1.21,0,0,0-.5.92,1.18,1.18,0,0,0,.37,1,1.81,1.81,0,0,0,1.13.48h.09a1.86,1.86,0,0,0,.82-.1,1.31,1.31,0,0,0,.61-.43,1.33,1.33,0,0,0,.26-.71,1.23,1.23,0,0,0-.38-1,1.69,1.69,0,0,0-1.16-.44Z"/><path class="cls-9" d="M381.93,226.17l-.66-.07a1.56,1.56,0,0,1,.54,1.44,1.27,1.27,0,0,1-.51.93,1.51,1.51,0,0,1-1.09.15l-2.5-.44c0-.17,0-.25.07-.42l2.51.42a1.12,1.12,0,0,0,.8-.11,1,1,0,0,0,.37-.69,1.22,1.22,0,0,0-.14-.78,1.5,1.5,0,0,0-.6-.57l-2.63-.34.05-.42,3.85.46C382,225.91,382,226,381.93,226.17Z"/><path class="cls-9" d="M366.11,283.36l-2-.63.13-.43,5,1.52c-.23.74-.35,1.11-.59,1.85a2.1,2.1,0,0,1-.84,1.19,1.37,1.37,0,0,1-1.25.1,1.39,1.39,0,0,1-.9-.83,2.13,2.13,0,0,1,.06-1.44C365.86,284.16,366,283.89,366.11,283.36Zm.36.11c-.17.54-.25.81-.43,1.35a1.56,1.56,0,0,0,0,1.08,1,1,0,0,0,.68.61,1.07,1.07,0,0,0,.93-.06,1.47,1.47,0,0,0,.64-.87c.19-.56.28-.85.46-1.41Z"/><path class="cls-9" d="M365.64,288.12a1.59,1.59,0,0,1,.19,1.52,1.26,1.26,0,0,1-.69.79,1.5,1.5,0,0,1-1.1-.1l-2.35-1,.17-.41,2.35,1a1.13,1.13,0,0,0,.81.07,1,1,0,0,0,.51-.59,1.26,1.26,0,0,0,0-.79,1.39,1.39,0,0,0-.46-.69l-2.48-.94.15-.41,5.15,1.9c-.06.18-.09.27-.16.44Z"/><path class="cls-9" d="M363.7,293.54a1.25,1.25,0,0,0,.15-.28,1.18,1.18,0,0,0,.1-.75,1.2,1.2,0,0,0-.43-.64l-2.44-1.06.18-.4,3.55,1.52-.18.42-.56-.24a1.21,1.21,0,0,1,.15,1.34.78.78,0,0,1-.16.26Z"/><path class="cls-9" d="M360.21,294.18c1,1,1.44,1.49,2.38,2.51-.08.17-.13.26-.22.44-1.29-1.46-1.94-2.17-3.28-3.57l-.14-.16a1.06,1.06,0,0,1-.21-1.2,1.1,1.1,0,0,1,.18-.28l.32.15a1.86,1.86,0,0,1-.11.19.79.79,0,0,0-.08.53,1.27,1.27,0,0,0,.34.54l.39.4c1.64.13,2.46.18,4.12.25-.09.18-.13.27-.21.46C362.29,294.35,361.6,294.3,360.21,294.18Z"/><path class="cls-9" d="M360.47,296.68a2.15,2.15,0,0,1,1.08,1,1.44,1.44,0,0,1-.08,1.29,1.47,1.47,0,0,1-1.18.82l.48.29-.21.37c-1.32-.75-2-1.12-3.29-1.88a1.57,1.57,0,0,1-.82-.95,1.51,1.51,0,0,1,.17-1.21,1.77,1.77,0,0,1,.52-.6,1.52,1.52,0,0,1,.7-.29c.05.13.07.2.12.34a1.4,1.4,0,0,0-1,.69,1.18,1.18,0,0,0-.13.9,1.31,1.31,0,0,0,.61.7l.43.24a1.45,1.45,0,0,1,.09-1.35,1.36,1.36,0,0,1,1-.72,2.31,2.31,0,0,1,1.48.29Zm-.28.36a2,2,0,0,0-1.18-.27,1,1,0,0,0-.78.56,1.19,1.19,0,0,0,.06,1.35l1.56.88a1.16,1.16,0,0,0,.72-.13,1.24,1.24,0,0,0,.52-.54,1.06,1.06,0,0,0,.06-1A2.11,2.11,0,0,0,360.19,297Z"/><path class="cls-9" d="M360.93,302.07a.29.29,0,0,1,.08.42.36.36,0,0,1-.19.16.28.28,0,0,1-.22,0,.27.27,0,0,1-.13-.18.35.35,0,0,1,0-.24.36.36,0,0,1,.19-.16A.29.29,0,0,1,360.93,302.07ZM356.37,300c.09-.15.14-.22.22-.37l3.33,2-.23.4Z"/><path class="cls-9" d="M354.4,303.11a1.7,1.7,0,0,1,.49.23,1.72,1.72,0,0,1-.05-.75,1.78,1.78,0,0,1,.28-.72,1.34,1.34,0,0,1,.76-.62,1,1,0,0,1,1.35,1,2.39,2.39,0,0,1-.46,1.34l-.45.68.37.25a.83.83,0,0,0,.69.13,1.17,1.17,0,0,0,.63-.54,1.29,1.29,0,0,0,.23-.79.66.66,0,0,0-.3-.56l.24-.38a1,1,0,0,1,.44.81,1.78,1.78,0,0,1-.32,1.14,1.64,1.64,0,0,1-.87.74,1.11,1.11,0,0,1-1-.16l-1.53-1a2.24,2.24,0,0,0-.76-.37l0,0Zm1-1a1.48,1.48,0,0,0-.26.77,1.23,1.23,0,0,0,.19.73l.71.47.44-.68a2,2,0,0,0,.36-1,.68.68,0,0,0-.33-.65.71.71,0,0,0-.59-.07A1,1,0,0,0,355.41,302.12Z"/><path class="cls-9" d="M356.48,306.92l-.55-.36a1.55,1.55,0,0,1,.11.79,1.53,1.53,0,0,1-.3.74,1.25,1.25,0,0,1-.87.59,1.53,1.53,0,0,1-1-.36l-2-1.52.26-.35,2.05,1.51a1.16,1.16,0,0,0,.76.27,1,1,0,0,0,.64-.45,1.16,1.16,0,0,0,.23-.76,1.47,1.47,0,0,0-.27-.78l-2.17-1.52.25-.35,3.18,2.19Z"/><path class="cls-9" d="M308,348.56c-.78.68-1.18,1-2,1.68l-.23-.29c.94-.76,1.4-1.16,2.31-2l3.46,3.88-.36.32Z"/><path class="cls-9" d="M306.61,351.83a2.26,2.26,0,0,1,.45.92,1.61,1.61,0,0,1-.08.95,1.82,1.82,0,0,1-.61.78,1.67,1.67,0,0,1-1.39.35,1.94,1.94,0,0,1-1.24-.86l-.06-.08a2.28,2.28,0,0,1-.41-.95,1.76,1.76,0,0,1,2-2,2.05,2.05,0,0,1,1.28.82Zm-.43.18a1.77,1.77,0,0,0-1-.67,1.19,1.19,0,0,0-1,.23,1.16,1.16,0,0,0-.5.93,1.82,1.82,0,0,0,.39,1.16l.05.07a1.93,1.93,0,0,0,.62.56,1.29,1.29,0,0,0,.73.17,1.32,1.32,0,0,0,.69-.27,1.18,1.18,0,0,0,.51-1,1.71,1.71,0,0,0-.43-1.15A.16.16,0,0,0,306.18,352Z"/><path class="cls-9" d="M300.84,353.93a1.21,1.21,0,0,0-.5.63.91.91,0,0,0,.08.72c-.14.1-.22.14-.36.23a1.21,1.21,0,0,1-.16-.67,1.4,1.4,0,0,1,.22-.67,1.58,1.58,0,0,1,.52-.54,1.54,1.54,0,0,1,1.3-.25,2.17,2.17,0,0,1,1.19.91l.07.11a2.26,2.26,0,0,1,.41,1,1.61,1.61,0,0,1-.11.9,1.75,1.75,0,0,1-.64.72,1.61,1.61,0,0,1-1.14.29,1.32,1.32,0,0,1-.93-.59l.36-.23a1,1,0,0,0,.69.43,1.25,1.25,0,0,0,1.37-1.08,1.78,1.78,0,0,0-.39-1.16l-.07-.1a1.86,1.86,0,0,0-.92-.77A1.12,1.12,0,0,0,300.84,353.93Z"/><path class="cls-9" d="M298.9,358.91a1.43,1.43,0,0,0,.28-.13,1.08,1.08,0,0,0,.5-.56,1.12,1.12,0,0,0,0-.77l-1.37-2.27.36-.22,2,3.29-.38.24L300,358a1.19,1.19,0,0,1-.64,1.19.88.88,0,0,1-.29.11A2.91,2.91,0,0,0,298.9,358.91Z"/><path class="cls-9" d="M299,360.55a.33.33,0,0,1,0,.22.34.34,0,0,1-.16.18.29.29,0,0,1-.25,0,.26.26,0,0,1-.17-.14.24.24,0,0,1,0-.22.34.34,0,0,1,.16-.18.33.33,0,0,1,.25,0A.26.26,0,0,1,299,360.55Zm-2.9-4.1.38-.21c.75,1.35,1.13,2,1.9,3.37l-.41.23C297.27,358.48,296.89,357.8,296.14,356.45Z"/><path class="cls-9" d="M292.92,358.12a1.56,1.56,0,0,1,.31.44,1.47,1.47,0,0,1,.32-.65,1.84,1.84,0,0,1,.59-.48,1.33,1.33,0,0,1,1-.14,1,1,0,0,1,.67.53,1,1,0,0,1,0,1,2.24,2.24,0,0,1-1.06.92l-.72.35c.08.16.12.24.19.4a.84.84,0,0,0,.53.47,1.14,1.14,0,0,0,.81-.14,1.27,1.27,0,0,0,.6-.56.7.7,0,0,0,0-.63l.4-.21a1,1,0,0,1,0,.92,1.76,1.76,0,0,1-.84.82,1.68,1.68,0,0,1-1.12.19,1.15,1.15,0,0,1-.76-.64l-.79-1.65a2.33,2.33,0,0,0-.47-.71l0,0Zm1.35-.33a1.62,1.62,0,0,0-.6.53,1.25,1.25,0,0,0-.2.72l.37.76.71-.35a2,2,0,0,0,.81-.68.7.7,0,0,0-.43-1.08A.94.94,0,0,0,294.27,357.79Z"/><path class="cls-9" d="M292.79,362.45l-.29-.59a1.49,1.49,0,0,1-.31.73,1.65,1.65,0,0,1-.62.48,1.26,1.26,0,0,1-1.05.05,1.51,1.51,0,0,1-.7-.84l-.95-2.36.4-.16,1,2.35a1.12,1.12,0,0,0,.51.63,1,1,0,0,0,.78-.05,1.18,1.18,0,0,0,.58-.52,1.38,1.38,0,0,0,.16-.81L291.18,359l.39-.18c.64,1.41,1,2.11,1.61,3.52A3.2,3.2,0,0,0,292.79,362.45Z"/><path class="cls-9" d="M214,66.9l-.5.07c-.37-2.31-.55-3.47-.92-5.79l.54-.08C213.46,63.42,213.64,64.58,214,66.9Z"/><path class="cls-9" d="M214.9,64.5a2.49,2.49,0,0,1,.11-1.16,1.88,1.88,0,0,1,.63-.86,2,2,0,0,1,1.05-.4,2,2,0,0,1,1.55.47,2.27,2.27,0,0,1,.69,1.57v.1a2.6,2.6,0,0,1-.17,1.16,1.88,1.88,0,0,1-.63.83,2,2,0,0,1-1,.37,1.85,1.85,0,0,1-1.48-.45,2.39,2.39,0,0,1-.76-1.53Zm.52.07a1.94,1.94,0,0,0,.56,1.22,1.35,1.35,0,0,0,1.13.38,1.31,1.31,0,0,0,1-.6,2,2,0,0,0,.31-1.35v-.09a2.1,2.1,0,0,0-.27-.9,1.48,1.48,0,0,0-.6-.59,1.46,1.46,0,0,0-.83-.15,1.4,1.4,0,0,0-1.06.63,1.89,1.89,0,0,0-.26,1.36Z"/><path class="cls-9" d="M220.33,61.89l0,.74A1.68,1.68,0,0,1,221,62a1.57,1.57,0,0,1,.86-.24,1.4,1.4,0,0,1,1.12.37,1.69,1.69,0,0,1,.38,1.18c0,1.14,0,1.72,0,2.86h-.48c0-1.14,0-1.71,0-2.86a1.27,1.27,0,0,0-.28-.87,1.1,1.1,0,0,0-.84-.26,1.33,1.33,0,0,0-.83.31,1.63,1.63,0,0,0-.5.78l.15,3-.48,0-.25-4.36Z"/><path class="cls-9" d="M224.67,60.54a.33.33,0,0,1,.37-.32.41.41,0,0,1,.26.1.31.31,0,0,1,.1.24.3.3,0,0,1-.1.22.4.4,0,0,1-.27.09.33.33,0,0,1-.26-.1A.29.29,0,0,1,224.67,60.54Zm.51,5.63h-.49c0-1.74,0-2.61.06-4.36h.52C225.23,63.56,225.21,64.43,225.18,66.17Z"/><path class="cls-9" d="M229.25,66.38a2.56,2.56,0,0,1,0-.61,1.8,1.8,0,0,1-.69.45,1.86,1.86,0,0,1-.84.13,1.5,1.5,0,0,1-1-.4,1.18,1.18,0,0,1-.36-.9,1.15,1.15,0,0,1,.59-1,2.56,2.56,0,0,1,1.55-.28l.91.06,0-.49a.92.92,0,0,0-.25-.76,1.31,1.31,0,0,0-.87-.33,1.44,1.44,0,0,0-.9.21.75.75,0,0,0-.38.6l-.51,0a1.12,1.12,0,0,1,.55-.88,2,2,0,0,1,1.29-.31,1.85,1.85,0,0,1,1.2.45,1.27,1.27,0,0,1,.38,1c-.08.83-.11,1.24-.18,2.06a2.53,2.53,0,0,0,.05,1v0Zm-1.49-.45a1.62,1.62,0,0,0,.88-.18,1.37,1.37,0,0,0,.61-.58l.08-1-.89-.06a2.27,2.27,0,0,0-1.18.19.78.78,0,0,0-.45.69.8.8,0,0,0,.24.62A1.09,1.09,0,0,0,227.76,65.93Z"/><path class="cls-9" d="M231.88,62.26c0,.29,0,.44-.07.74a1.73,1.73,0,0,1,.72-.53,1.78,1.78,0,0,1,.89-.1,1.42,1.42,0,0,1,1.05.55,1.71,1.71,0,0,1,.18,1.23c-.18,1.13-.27,1.69-.44,2.82l-.48-.07.43-2.83a1.25,1.25,0,0,0-.14-.9,1,1,0,0,0-.78-.4,1.31,1.31,0,0,0-.87.17,1.6,1.6,0,0,0-.63.68c-.13,1.19-.2,1.78-.34,3l-.48,0c.19-1.74.28-2.6.47-4.34Z"/></g></g></svg>