<svg xmlns="http://www.w3.org/2000/svg" viewBox="0 0 38.13 38.13"><defs><style>.cls-1{fill:#fff;}.cls-2{fill:none;}</style></defs><g id="Layer_2" data-name="Layer 2"><g id="Layer_1-2" data-name="Layer 1"><path class="cls-1" d="M31.38,24.91a11.81,11.81,0,0,1-3.75,7.83,12.25,12.25,0,0,1-8.38,2.76,11.29,11.29,0,0,1-9.09-4.07Q6.75,27.37,6.75,20.56V17.48A18.23,18.23,0,0,1,8.34,9.64a11.88,11.88,0,0,1,4.52-5.2,12.52,12.52,0,0,1,6.76-1.81A11.6,11.6,0,0,1,27.8,5.47a12,12,0,0,1,3.58,7.88H27.14C26.77,10.79,26,8.94,24.75,7.8a7.18,7.18,0,0,0-5.13-1.72,7.58,7.58,0,0,0-6.34,3Q11,12.06,11,17.58v3.1A14.1,14.1,0,0,0,13.16,29a7,7,0,0,0,6.09,3.08,8.17,8.17,0,0,0,5.4-1.59c1.25-1.07,2.08-2.91,2.49-5.55Z"/><rect class="cls-2" width="38.13" height="38.13"/></g></g></svg>