<svg xmlns="http://www.w3.org/2000/svg" viewBox="0 0 38.13 38.13"><defs><style>.cls-1{fill:#fff;}.cls-2{fill:none;}</style></defs><g id="Layer_2" data-name="Layer 2"><g id="Layer_1-2" data-name="Layer 1"><path class="cls-1" d="M8.83,35.06v-32h9a14.51,14.51,0,0,1,7.38,1.84,12.52,12.52,0,0,1,5,5.25A17.27,17.27,0,0,1,32,18v2A17.07,17.07,0,0,1,30.22,28a12.24,12.24,0,0,1-5,5.23,15.4,15.4,0,0,1-7.54,1.87ZM13.05,6.52V31.61h4.44a9.67,9.67,0,0,0,7.59-3q2.72-3,2.71-8.65V18.06c0-3.63-.85-6.46-2.56-8.47A9.08,9.08,0,0,0,18,6.52Z"/><rect class="cls-2" width="38.13" height="38.13"/></g></g></svg>