<svg xmlns="http://www.w3.org/2000/svg" viewBox="0 0 38.13 38.13"><defs><style>.cls-1,.cls-2{fill:#fff;}.cls-1{stroke:#fff;stroke-miterlimit:10;stroke-width:0.5px;}.cls-3{fill:none;}</style></defs><g id="Layer_2" data-name="Layer 2"><g id="Layer_1-2" data-name="Layer 1"><path class="cls-1" d="M32.39,3.12V19.58a3,3,0,0,0-.78.69V3.12Z"/><path class="cls-1" d="M37.48,15.08a3,3,0,0,0-3.13-2.35,2.28,2.28,0,0,0-2,1.27.88.88,0,0,0,0,.1l-.73,6.17a3,3,0,0,1,.78-.69,8.22,8.22,0,0,1,1.81-.88C36.33,18,37.6,16.39,37.48,15.08ZM34.32,17.6a9.54,9.54,0,0,1-1.93,1.46V15a1.91,1.91,0,0,1,1.31-1.57,1.78,1.78,0,0,1,2,1.31C35.83,15.29,35.76,16.16,34.32,17.6Z"/><path class="cls-2" d="M6,35.12v-32h9A14.55,14.55,0,0,1,22.4,5a12.43,12.43,0,0,1,5,5.25A17,17,0,0,1,29.12,18v2.05A17.1,17.1,0,0,1,27.37,28a12.27,12.27,0,0,1-5,5.23,15.55,15.55,0,0,1-7.55,1.87ZM10.2,6.57v25.1h4.44a9.67,9.67,0,0,0,7.59-3Q24.95,25.6,25,20V18.12c0-3.64-.86-6.46-2.56-8.48a9.11,9.11,0,0,0-7.27-3.07Z"/><rect class="cls-3" width="38.13" height="38.13"/></g></g></svg>