<svg xmlns="http://www.w3.org/2000/svg" viewBox="0 0 38.13 38.13"><defs><style>.cls-1,.cls-2{fill:#fff;}.cls-2{stroke:#fff;stroke-miterlimit:10;stroke-width:0.5px;}.cls-3{fill:none;}</style></defs><g id="Layer_2" data-name="Layer 2"><g id="Layer_1-2" data-name="Layer 1"><path class="cls-1" d="M26,21.7H12.17V33H28.28v3.45H8v-32H28.06V7.94H12.17V18.25H26Z"/><path class="cls-2" d="M32.39,4.55V21a3,3,0,0,0-.78.69V4.55Z"/><path class="cls-2" d="M37.48,16.5a3,3,0,0,0-3.13-2.34,2.28,2.28,0,0,0-2,1.27.88.88,0,0,0,0,.1l-.73,6.17a3,3,0,0,1,.78-.69,8.24,8.24,0,0,1,1.81-.89C36.33,19.4,37.6,17.82,37.48,16.5ZM34.32,19a9.85,9.85,0,0,1-1.93,1.47v-4a1.91,1.91,0,0,1,1.31-1.57,1.78,1.78,0,0,1,2,1.31C35.83,16.71,35.76,17.59,34.32,19Z"/><rect class="cls-3" width="38.13" height="38.13"/></g></g></svg>