<svg xmlns="http://www.w3.org/2000/svg" viewBox="0 0 38.27 38.13"><defs><style>.cls-1,.cls-2{fill:#fff;}.cls-1{stroke:#fff;stroke-miterlimit:10;stroke-width:0.5px;}.cls-3{fill:none;}</style></defs><g id="Layer_2" data-name="Layer 2"><g id="Layer_1-2" data-name="Layer 1"><rect class="cls-1" x="32.58" y="6.48" width="0.78" height="15.4"/><rect class="cls-1" x="35.7" y="4.73" width="0.78" height="15.4"/><polygon class="cls-1" points="38.02 7.25 38.02 9.79 36.48 10.47 35.7 10.81 33.36 11.84 32.58 12.18 31.07 12.84 31.07 10.29 32.58 9.63 33.36 9.29 35.7 8.26 36.48 7.92 38.02 7.25"/><polygon class="cls-1" points="38.02 13.46 38.02 16.02 36.48 16.69 35.7 17.03 33.36 18.06 32.58 18.4 31.07 19.06 31.07 16.51 32.58 15.85 33.36 15.51 35.7 14.48 36.48 14.14 38.02 13.46"/><path class="cls-2" d="M26,22.59H12.52V36.72H8.3v-32H28.12V8.18H12.52v11H26Z"/><rect class="cls-3" width="38.13" height="38.13"/></g></g></svg>