<svg xmlns="http://www.w3.org/2000/svg" viewBox="0 0 38.13 38.13"><defs><style>.cls-1{fill:#fff;}.cls-2{fill:none;}</style></defs><g id="Layer_2" data-name="Layer 2"><g id="Layer_1-2" data-name="Layer 1"><path class="cls-1" d="M31.39,30.86a9.71,9.71,0,0,1-4.54,3.49,18.51,18.51,0,0,1-6.78,1.15,13.09,13.09,0,0,1-6.94-1.84,12.25,12.25,0,0,1-4.69-5.21,18,18,0,0,1-1.7-7.85V17.81q0-7.23,3.37-11.21t9.48-4a12.14,12.14,0,0,1,8.07,2.56,11.12,11.12,0,0,1,3.73,7.26H27.17Q26,6.07,19.61,6.08a7.45,7.45,0,0,0-6.42,3Q11,12,11,17.69v2.62q0,5.39,2.46,8.56a8,8,0,0,0,6.66,3.18,14.73,14.73,0,0,0,4.15-.53,6.37,6.37,0,0,0,2.94-1.77V22.58h-7.4V19.13h11.6Z"/><rect class="cls-2" width="38.13" height="38.13"/></g></g></svg>