<svg xmlns="http://www.w3.org/2000/svg" viewBox="0 0 38.13 38.13"><defs><style>.cls-1{fill:#fff;}.cls-2{fill:none;}</style></defs><g id="Layer_2" data-name="Layer 2"><g id="Layer_1-2" data-name="Layer 1"><path class="cls-1" d="M32.39,4.55V21a3,3,0,0,0-.78.69V4.55Z"/><path class="cls-1" d="M37.48,16.5a3,3,0,0,0-3.13-2.34,2.28,2.28,0,0,0-2,1.27.88.88,0,0,0,0,.1l-.73,6.17a3,3,0,0,1,.78-.69,8.24,8.24,0,0,1,1.81-.89C36.33,19.4,37.6,17.82,37.48,16.5ZM34.32,19a9.85,9.85,0,0,1-1.93,1.47v-4a1.91,1.91,0,0,1,1.31-1.57,1.78,1.78,0,0,1,2,1.31C35.83,16.71,35.76,17.59,34.32,19Z"/><path class="cls-1" d="M29,32.8a9.73,9.73,0,0,1-4.53,3.48,18.31,18.31,0,0,1-6.78,1.15,13.21,13.21,0,0,1-6.95-1.83,12.33,12.33,0,0,1-4.69-5.22,18.14,18.14,0,0,1-1.7-7.85V19.74q0-7.23,3.37-11.2t9.48-4A12.14,12.14,0,0,1,25.3,7.12,11.17,11.17,0,0,1,29,14.38H24.81Q23.63,8,17.26,8a7.46,7.46,0,0,0-6.43,3c-1.46,2-2.19,4.86-2.21,8.63v2.62c0,3.59.82,6.45,2.46,8.56A8,8,0,0,0,17.74,34a14.7,14.7,0,0,0,4.15-.52,6.47,6.47,0,0,0,2.95-1.78V24.51H17.43V21.06H29Z"/><rect class="cls-2" width="38.13" height="38.13"/></g></g></svg>