<svg xmlns="http://www.w3.org/2000/svg" viewBox="0 0 29.32 29.32"><defs><style>.cls-1{fill:#fff;}.cls-2{fill:none;}</style></defs><g id="Layer_2" data-name="Layer 2"><g id="Layer_1-2" data-name="Layer 1"><path class="cls-1" d="M18.06,22.6v.73h-6.8V22.6h.22c.95-.06,1.51-.2,1.68-.4a3.77,3.77,0,0,0,.27-1.9V9a3.7,3.7,0,0,0-.27-1.89q-.25-.3-1.68-.39l-.22,0V6h6.8v.72l-.23,0q-1.42.09-1.68.39A3.74,3.74,0,0,0,15.89,9V20.29a3.82,3.82,0,0,0,.26,1.9c.17.2.73.34,1.68.4Z"/><rect class="cls-2" width="29.32" height="29.32"/></g></g></svg>