<svg xmlns="http://www.w3.org/2000/svg" viewBox="0 0 29.32 29.32"><defs><style>.cls-1{fill:#fff;}.cls-2{fill:none;}</style></defs><g id="Layer_2" data-name="Layer 2"><g id="Layer_1-2" data-name="Layer 1"><path class="cls-1" d="M12.13,10.6v9.69a3.94,3.94,0,0,0,.25,1.9c.17.21.74.34,1.69.4h.22v.73H7.65V22.6h.22c1-.06,1.51-.2,1.68-.4a3.77,3.77,0,0,0,.27-1.9V13.64a3.7,3.7,0,0,0-.27-1.89c-.17-.2-.73-.34-1.68-.41H7.65V10.6ZM9.82,8.29V6h2.31v2.3Z"/><path class="cls-1" d="M19.5,10.6v9.69a3.94,3.94,0,0,0,.25,1.9c.18.21.74.34,1.69.4h.23v.73H15V22.6h.22a3,3,0,0,0,1.69-.4,3.94,3.94,0,0,0,.26-1.9V13.64a3.86,3.86,0,0,0-.26-1.89,3,3,0,0,0-1.69-.41H15V10.6ZM17.19,8.29V6H19.5v2.3Z"/><rect class="cls-2" width="29.32" height="29.32"/></g></g></svg>