<svg xmlns="http://www.w3.org/2000/svg" viewBox="0 0 29.32 29.32"><defs><style>.cls-1{fill:#fff;}.cls-2{fill:none;}</style></defs><g id="Layer_2" data-name="Layer 2"><g id="Layer_1-2" data-name="Layer 1"><path class="cls-1" d="M8.44,10.6v9.69a3.89,3.89,0,0,0,.26,1.9c.17.21.73.34,1.69.4h.22v.73H4V22.6h.23a3,3,0,0,0,1.68-.4,3.94,3.94,0,0,0,.26-1.9V13.64a3.86,3.86,0,0,0-.26-1.89,3,3,0,0,0-1.68-.41H4V10.6ZM6.13,8.29V6H8.44v2.3Z"/><path class="cls-1" d="M15.81,10.6v9.69a3.89,3.89,0,0,0,.26,1.9c.17.21.73.34,1.69.4H18v.73H11.34V22.6h.22a3,3,0,0,0,1.68-.4,3.82,3.82,0,0,0,.26-1.9V13.64a3.74,3.74,0,0,0-.26-1.89,3,3,0,0,0-1.68-.41h-.22V10.6ZM13.5,8.29V6h2.31v2.3Z"/><path class="cls-1" d="M23.18,10.6v9.69a3.89,3.89,0,0,0,.26,1.9c.17.21.73.34,1.69.4h.22v.73H18.71V22.6h.22a3,3,0,0,0,1.68-.4,3.82,3.82,0,0,0,.26-1.9V13.64a3.74,3.74,0,0,0-.26-1.89,3,3,0,0,0-1.68-.41h-.22V10.6ZM20.87,8.29V6h2.31v2.3Z"/><rect class="cls-2" width="29.32" height="29.32"/></g></g></svg>