<svg xmlns="http://www.w3.org/2000/svg" viewBox="0 0 29.32 29.32"><defs><style>.cls-1{fill:#fff;}.cls-2{fill:none;}</style></defs><g id="Layer_2" data-name="Layer 2"><g id="Layer_1-2" data-name="Layer 1"><path class="cls-1" d="M9.41,22.49v.73H2.62v-.73h.22a2.93,2.93,0,0,0,1.68-.4,3.82,3.82,0,0,0,.26-1.9V8.91A3.74,3.74,0,0,0,4.52,7c-.17-.2-.74-.33-1.68-.4l-.22,0V5.87H9.41V6.6l-.22,0A3.06,3.06,0,0,0,7.5,7a3.91,3.91,0,0,0-.25,1.89V20.18a4,4,0,0,0,.25,1.9,3,3,0,0,0,1.69.4Z"/><path class="cls-1" d="M18.13,23.44,12.18,9a13,13,0,0,0-1-2,1.47,1.47,0,0,0-1-.31l-.24,0V5.87h6.29V6.6H16c-1.21,0-1.81.15-1.81.46A14.76,14.76,0,0,0,14.85,9l4.5,10.92L23.57,9l.23-.6a4.73,4.73,0,0,0,.38-1.25c0-.34-.57-.51-1.7-.51h-.26V5.87H26.7V6.6l-.26,0c-.54,0-.87.11-1,.26A14.44,14.44,0,0,0,24.53,9L18.92,23.44Z"/><rect class="cls-2" width="29.32" height="29.32"/></g></g></svg>