<svg xmlns="http://www.w3.org/2000/svg" viewBox="0 0 29.32 29.32"><defs><style>.cls-1{fill:#fff;}.cls-2{fill:none;}</style></defs><g id="Layer_2" data-name="Layer 2"><g id="Layer_1-2" data-name="Layer 1"><path class="cls-1" d="M14.48,23.44,8.53,9a13,13,0,0,0-1-2,1.47,1.47,0,0,0-1-.31l-.24,0V5.87h6.29V6.6h-.25c-1.21,0-1.81.15-1.81.46A14.76,14.76,0,0,0,11.2,9l4.49,10.92L19.92,9l.23-.6a4.56,4.56,0,0,0,.37-1.25c0-.34-.56-.51-1.69-.51h-.26V5.87h4.48V6.6l-.26,0c-.54,0-.87.11-1,.26A14.44,14.44,0,0,0,20.88,9L15.27,23.44Z"/><rect class="cls-2" width="29.32" height="29.32"/></g></g></svg>