<svg xmlns="http://www.w3.org/2000/svg" viewBox="0 0 29.32 29.32"><defs><style>.cls-1{fill:#fff;}.cls-2{fill:none;}</style></defs><g id="Layer_2" data-name="Layer 2"><g id="Layer_1-2" data-name="Layer 1"><path class="cls-1" d="M10.6,23.4,6.47,13.65a13.28,13.28,0,0,0-.93-1.94,1,1,0,0,0-.77-.44h-.2v-.73H10.1v.73H9.87c-1,0-1.53.17-1.54.5A11.4,11.4,0,0,0,9,13.67l2.88,6.79,3-6.77a8.49,8.49,0,0,0,.7-1.91c0-.35-.47-.52-1.42-.52h-.25v-.73h3.77v.73h-.25a1,1,0,0,0-.67.29,14.38,14.38,0,0,0-1,2.12l-4.4,9.72Z"/><path class="cls-1" d="M22.57,10.53v9.69a3.89,3.89,0,0,0,.26,1.9c.17.21.73.34,1.69.4h.22v.73H18.1v-.73h.22a2.93,2.93,0,0,0,1.68-.4,3.82,3.82,0,0,0,.26-1.9V13.57A3.74,3.74,0,0,0,20,11.68a3,3,0,0,0-1.68-.41H18.1v-.73ZM20.26,8.22V5.92h2.31v2.3Z"/><rect class="cls-2" width="29.32" height="29.32"/></g></g></svg>