<svg xmlns="http://www.w3.org/2000/svg" viewBox="0 0 29.32 29.32"><defs><style>.cls-1{fill:#fff;}.cls-2{fill:none;}</style></defs><g id="Layer_2" data-name="Layer 2"><g id="Layer_1-2" data-name="Layer 1"><path class="cls-1" d="M6.92,23.4,2.79,13.65a12,12,0,0,0-.94-1.94,1,1,0,0,0-.76-.44H.89v-.73H6.41v.73H6.19c-1,0-1.53.17-1.55.5a11.4,11.4,0,0,0,.71,1.91l2.88,6.79,3-6.77a8.8,8.8,0,0,0,.71-1.91c0-.35-.48-.52-1.42-.52h-.26v-.73H14v.73h-.25a.93.93,0,0,0-.66.29A13.9,13.9,0,0,0,12,13.68L7.63,23.4Z"/><path class="cls-1" d="M18.89,10.53v9.69a3.94,3.94,0,0,0,.25,1.9c.18.21.74.34,1.69.4h.23v.73H14.41v-.73h.22a3,3,0,0,0,1.69-.4,3.94,3.94,0,0,0,.26-1.9V13.57a3.86,3.86,0,0,0-.26-1.89,3,3,0,0,0-1.69-.41h-.22v-.73ZM16.58,8.22V5.92h2.31v2.3Z"/><path class="cls-1" d="M26.26,10.53v9.69a3.94,3.94,0,0,0,.25,1.9c.18.21.74.34,1.7.4h.22v.73H21.78v-.73H22a3,3,0,0,0,1.68-.4,3.94,3.94,0,0,0,.26-1.9V13.57a3.86,3.86,0,0,0-.26-1.89A3,3,0,0,0,22,11.27h-.23v-.73ZM24,8.22V5.92h2.31v2.3Z"/><rect class="cls-2" width="29.32" height="29.32"/></g></g></svg>